<svg width="261" height="156" viewBox="0 0 261 156" fill="none" xmlns="http://www.w3.org/2000/svg">
<path d="M66.8288 13.0002H69.8354C70.0593 13.0002 70.2192 12.9043 70.2192 12.7284V12.6804C70.2192 12.2806 69.5315 12.1366 69.5315 11.465V8.15447H71.6745C72.3462 8.15447 72.5382 9.27396 72.954 9.27396H73.0819C73.2418 9.27396 73.3538 9.13002 73.3538 8.93811V6.36329C73.3538 6.15539 73.2418 6.01145 73.0819 6.01145H72.954C72.5382 6.01145 72.3462 7.19491 71.6745 7.19491H69.5315V3.2927C69.5315 2.78093 69.8034 2.621 70.1552 2.621H72.2663C73.3058 2.621 73.7696 4.39619 74.5212 4.39619H74.6012C74.8411 4.39619 74.985 4.25226 74.9371 3.98038L74.5532 2.10924C74.5053 1.78939 74.3773 1.64545 74.0575 1.64545H66.8128C66.6049 1.64545 66.4609 1.74141 66.4609 1.90134V1.9653C66.4609 2.36512 67.0847 2.49306 67.0847 3.18075V11.465C67.0847 12.1366 66.4609 12.2806 66.4609 12.6804V12.7284C66.4609 12.9043 66.6049 13.0002 66.8288 13.0002Z" class="svg-blue"  />
<path d="M79.6726 5.16384C78.6011 5.16384 77.8495 5.72358 77.4976 6.74711V5.54766C77.4976 5.2438 77.3537 5.05189 76.9859 5.22781L75.0667 6.1234C74.8588 6.21936 74.7309 6.3473 74.7309 6.50722V6.57119C74.7309 6.97101 75.4666 7.01899 75.4666 7.72267V11.465C75.4666 12.1366 74.8428 12.2646 74.8428 12.6644V12.7284C74.8428 12.9043 74.9868 13.0002 75.2107 13.0002H78.1693C78.3772 13.0002 78.5212 12.9043 78.5212 12.7284V12.6644C78.5212 12.2646 77.7215 12.1366 77.7215 11.465V8.26642C77.7215 7.38682 77.9454 6.50722 78.5691 6.50722C79.4327 6.50722 78.873 7.88259 80.1204 7.88259C80.8881 7.88259 81.144 7.29086 81.144 6.61917C81.144 5.80355 80.6162 5.16384 79.6726 5.16384Z" class="svg-blue"/>
<path d="M85.8278 13.1602C88.1627 13.1602 89.89 11.465 89.89 9.19399C89.89 6.92303 88.0508 5.16384 85.5879 5.16384C83.3489 5.16384 81.4458 6.79509 81.4458 9.11403C81.4458 11.337 83.253 13.1602 85.8278 13.1602ZM86.1157 12.4565C84.6603 12.4565 83.7967 9.8337 83.7967 8.20245C83.7967 6.68314 84.3085 5.86752 85.2681 5.86752C86.6274 5.86752 87.4911 8.39436 87.4911 10.1376C87.4911 11.6089 86.9793 12.4565 86.1157 12.4565Z" class="svg-blue"/>
<path d="M99.119 11.449L98.9271 8.57028C98.7351 6.02744 97.3278 5.16384 95.8725 5.16384C94.785 5.16384 93.9373 5.64362 93.5055 6.45925V5.56366C93.5055 5.2598 93.3296 5.0359 92.9618 5.22781L91.0587 6.15539C90.8668 6.25134 90.7388 6.33131 90.7388 6.49123V6.5552C90.7388 6.95502 91.5225 7.01899 91.5225 7.73866V11.465C91.5225 12.1526 90.8348 12.2806 90.8348 12.6804V12.7444C90.8348 12.9043 90.9787 13.0162 91.2026 13.0162H94.1772C94.4011 13.0162 94.5451 12.9043 94.5451 12.7444V12.6804C94.5451 12.2806 93.8574 12.1526 93.8574 11.465V7.83462C93.8574 6.79509 94.3532 6.07542 95.2168 6.07542C96.0644 6.07542 96.5282 6.7791 96.6081 8.49032L96.768 11.449C96.8 12.1526 96.1923 12.2806 96.1923 12.6804V12.7444C96.1923 12.9043 96.3362 13.0162 96.5601 13.0162H99.3269C99.5508 13.0162 99.6947 12.9043 99.6947 12.7444V12.6804C99.6947 12.2806 99.167 12.1526 99.119 11.449Z" class="svg-blue"/>
<path d="M103.511 13.1602C105.111 13.1602 105.974 11.9767 105.974 10.8252C105.974 10.5214 105.591 10.4574 105.399 10.7293C105.271 11.0971 104.951 11.449 104.311 11.449C103.847 11.449 103.495 11.0651 103.495 10.4254V6.25134H105.335C105.511 6.25134 105.654 6.1234 105.654 5.93149V5.65961C105.654 5.4677 105.511 5.32377 105.335 5.32377H103.495L103.479 3.74049C103.479 3.5006 103.352 3.35667 103.128 3.35667H102.808C102.632 3.35667 102.488 3.5006 102.44 3.74049C102.264 4.68406 101.64 5.32377 100.745 5.32377H100.345C100.137 5.32377 100.025 5.45171 100.025 5.65961V5.93149C100.025 6.1234 100.153 6.25134 100.345 6.25134H101.097V10.3934C101.097 12.2166 102.056 13.1602 103.511 13.1602Z" class="svg-blue"/>
<path d="M113.008 10.5694C112.704 11.0651 112.032 11.4969 111.185 11.4969C110.225 11.4969 109.489 10.9852 109.074 10.1056L112.624 8.49032C113.056 8.2984 113.328 7.97855 113.328 7.4348C113.328 6.37928 112.4 5.16384 110.305 5.16384C108.21 5.16384 106.435 6.7791 106.435 9.09804C106.435 11.5609 108.082 13.1602 110.305 13.1602C112.368 13.1602 113.456 11.6729 113.551 10.7453C113.567 10.4094 113.2 10.3295 113.008 10.5694ZM110.017 5.86752C110.881 5.86752 111.297 7.003 111.297 7.57873C111.297 7.91458 111.169 8.18645 110.881 8.33039L108.818 9.36991C108.706 8.9541 108.658 8.49032 108.658 7.99454C108.658 6.7791 109.169 5.86752 110.017 5.86752Z" class="svg-blue"/>
<path d="M122.671 11.449L122.479 8.57028C122.287 6.02744 120.88 5.16384 119.424 5.16384C118.337 5.16384 117.489 5.64362 117.057 6.45925V5.56366C117.057 5.2598 116.881 5.0359 116.514 5.22781L114.61 6.15539C114.418 6.25134 114.291 6.33131 114.291 6.49123V6.5552C114.291 6.95502 115.074 7.01899 115.074 7.73866V11.465C115.074 12.1526 114.386 12.2806 114.386 12.6804V12.7444C114.386 12.9043 114.53 13.0162 114.754 13.0162H117.729C117.953 13.0162 118.097 12.9043 118.097 12.7444V12.6804C118.097 12.2806 117.409 12.1526 117.409 11.465V7.83462C117.409 6.79509 117.905 6.07542 118.768 6.07542C119.616 6.07542 120.08 6.7791 120.16 8.49032L120.32 11.449C120.352 12.1526 119.744 12.2806 119.744 12.6804V12.7444C119.744 12.9043 119.888 13.0162 120.112 13.0162H122.879C123.102 13.0162 123.246 12.9043 123.246 12.7444V12.6804C123.246 12.2806 122.719 12.1526 122.671 11.449Z" class="svg-blue"/>
<path d="M131.811 11.465V1.30961C131.811 0.941774 131.62 0.845818 131.188 0.989752L129.093 1.62946C128.885 1.69343 128.757 1.83736 128.757 1.99729V2.04527C128.757 2.44509 129.557 2.49306 129.557 3.22873V5.78755C129.077 5.38774 128.469 5.16384 127.685 5.16384C125.638 5.16384 123.911 6.7791 123.911 9.14602C123.911 11.7208 125.718 13.1602 127.669 13.1602C128.485 13.1602 129.269 12.8563 129.748 12.2966L129.78 12.6484C129.78 12.8563 129.924 13.0002 130.148 13.0002H132.131C132.323 13.0002 132.451 12.9043 132.451 12.7284V12.6804C132.451 12.2966 131.811 12.1366 131.811 11.465ZM128.197 12.4725C126.87 12.4245 126.134 9.96164 126.198 8.20245C126.23 6.71513 126.838 5.85152 127.813 5.85152C128.757 5.85152 129.557 6.92303 129.557 7.94656V10.7613C129.557 11.8968 128.853 12.4725 128.197 12.4725Z" class="svg-blue"/>
<path d="M137.218 13.0002H140.209C140.433 13.0002 140.577 12.9043 140.577 12.7284V12.6804C140.577 12.2806 139.889 12.1366 139.889 11.465L139.905 7.78664H144.799V11.465C144.799 12.1366 144.191 12.2806 144.191 12.6804V12.7284C144.191 12.9043 144.319 13.0002 144.543 13.0002H147.534C147.758 13.0002 147.901 12.9043 147.901 12.7284V12.6804C147.901 12.2806 147.214 12.1366 147.214 11.465V3.18075C147.214 2.50906 147.901 2.36512 147.901 1.9653V1.90134C147.901 1.74141 147.758 1.64545 147.534 1.64545H144.543C144.319 1.64545 144.191 1.74141 144.191 1.90134V1.9653C144.191 2.36512 144.799 2.50906 144.799 3.18075V6.73112H139.905V3.18075C139.905 2.50906 140.577 2.36512 140.577 1.9653V1.90134C140.577 1.74141 140.433 1.64545 140.209 1.64545H137.218C136.994 1.64545 136.867 1.74141 136.867 1.90134V1.9653C136.867 2.36512 137.474 2.50906 137.474 3.18075V11.465C137.474 12.1366 136.867 12.2806 136.867 12.6804V12.7284C136.867 12.9043 136.994 13.0002 137.218 13.0002Z" class="svg-blue"/>
<path d="M153.094 13.1602C155.429 13.1602 157.156 11.465 157.156 9.19399C157.156 6.92303 155.317 5.16384 152.854 5.16384C150.615 5.16384 148.712 6.79509 148.712 9.11403C148.712 11.337 150.519 13.1602 153.094 13.1602ZM153.382 12.4565C151.926 12.4565 151.063 9.8337 151.063 8.20245C151.063 6.68314 151.575 5.86752 152.534 5.86752C153.893 5.86752 154.757 8.39436 154.757 10.1376C154.757 11.6089 154.245 12.4565 153.382 12.4565Z" class="svg-blue"/>
<path d="M162.963 5.16384C161.891 5.16384 161.139 5.72358 160.788 6.74711V5.54766C160.788 5.2438 160.644 5.05189 160.276 5.22781L158.357 6.1234C158.149 6.21936 158.021 6.3473 158.021 6.50722V6.57119C158.021 6.97101 158.757 7.01899 158.757 7.72267V11.465C158.757 12.1366 158.133 12.2646 158.133 12.6644V12.7284C158.133 12.9043 158.277 13.0002 158.501 13.0002H161.459C161.667 13.0002 161.811 12.9043 161.811 12.7284V12.6644C161.811 12.2646 161.011 12.1366 161.011 11.465V8.26642C161.011 7.38682 161.235 6.50722 161.859 6.50722C162.723 6.50722 162.163 7.88259 163.41 7.88259C164.178 7.88259 164.434 7.29086 164.434 6.61917C164.434 5.80355 163.906 5.16384 162.963 5.16384Z" class="svg-blue"/>
<path d="M168.221 13.1442C170.364 13.1442 171.643 12.1526 171.643 10.8572C171.643 7.80263 167.277 9.08204 167.277 6.89105C167.277 6.31531 167.677 5.81954 168.317 5.81954C169.708 5.81954 169.245 7.91458 170.572 7.91458C171.084 7.91458 171.484 7.54675 171.484 7.08296C171.484 6.09141 170.204 5.16384 168.189 5.16384C166.27 5.16384 164.943 6.15539 164.943 7.51476C164.943 10.6653 169.389 9.33793 169.389 11.465C169.389 12.1846 168.877 12.5205 168.221 12.5205C166.622 12.5205 167.166 10.4094 165.758 10.4094C165.214 10.4094 164.799 10.6813 164.799 11.289C164.799 12.2806 166.158 13.1442 168.221 13.1442Z" class="svg-blue"/>
<path d="M179.024 10.5694C178.72 11.0651 178.049 11.4969 177.201 11.4969C176.242 11.4969 175.506 10.9852 175.09 10.1056L178.641 8.49032C179.072 8.2984 179.344 7.97855 179.344 7.4348C179.344 6.37928 178.417 5.16384 176.322 5.16384C174.227 5.16384 172.451 6.7791 172.451 9.09804C172.451 11.5609 174.099 13.1602 176.322 13.1602C178.385 13.1602 179.472 11.6729 179.568 10.7453C179.584 10.4094 179.216 10.3295 179.024 10.5694ZM176.034 5.86752C176.897 5.86752 177.313 7.003 177.313 7.57873C177.313 7.91458 177.185 8.18645 176.897 8.33039L174.834 9.36991C174.722 8.9541 174.674 8.49032 174.674 7.99454C174.674 6.7791 175.186 5.86752 176.034 5.86752Z" class="svg-blue"/>
<path d="M180.891 5.8995C182.331 4.98792 183.019 3.86843 183.019 2.60501C183.019 1.5335 182.331 0.925781 181.547 0.925781C180.684 0.925781 180.14 1.5335 180.14 2.4131C180.14 3.18075 180.604 3.7245 181.179 3.7245C181.355 3.7245 181.387 3.85244 181.355 4.02836C181.291 4.50814 181.051 4.82799 180.46 5.41972C180.188 5.6916 180.572 6.09142 180.891 5.8995Z" class="svg-blue"/>
<path d="M186.494 13.1442C188.637 13.1442 189.916 12.1526 189.916 10.8572C189.916 7.80263 185.55 9.08204 185.55 6.89105C185.55 6.31531 185.95 5.81954 186.59 5.81954C187.981 5.81954 187.517 7.91458 188.845 7.91458C189.357 7.91458 189.756 7.54675 189.756 7.08296C189.756 6.09141 188.477 5.16384 186.462 5.16384C184.543 5.16384 183.215 6.15539 183.215 7.51476C183.215 10.6653 187.661 9.33793 187.661 11.465C187.661 12.1846 187.15 12.5205 186.494 12.5205C184.895 12.5205 185.438 10.4094 184.031 10.4094C183.487 10.4094 183.071 10.6813 183.071 11.289C183.071 12.2806 184.431 13.1442 186.494 13.1442Z" class="svg-blue"/>
<path d="M70.0176 30.1559C66.499 38.7294 63.3669 47.4381 60.3489 56.3167C55.7074 57.5568 51.3501 58.8527 47.696 59.8741C45.4835 60.6187 47.2526 63.6232 47.9486 64.7342C52.4414 70.9904 52.165 77.4875 50.3234 84.7386C50.2115 85.3068 50.3488 85.6585 50.6561 85.8961C50.898 87.0652 52.3322 88.174 53.1496 88.0695C53.4221 88.0346 53.6713 87.8181 53.7157 87.4432C56.6217 79.1327 60.2501 69.2528 63.9809 59.4522C68.9297 58.4497 74.0602 57.4241 78.7714 56.729C73.632 74.2793 70.9681 91.6976 76.9848 94.7125C77.1897 94.8709 77.4621 94.836 77.6438 94.8128C78.2796 94.7315 78.8456 94.1052 77.7652 93.5972C73.8534 91.8823 79.0139 73.7754 85.1523 56.0973C87.162 55.9324 88.9342 56.0749 90.1497 56.1964C91.5586 56.3853 92.4075 51.4766 86.8651 51.4472C91.9127 37.5087 97.2815 24.6369 98.9077 21.4749C99.7768 19.6098 96.561 19.0058 94.4721 19.2731C93.6546 19.3777 92.9513 19.6523 92.8161 20.0388C89.6407 25.5222 84.4652 38.4616 80.2118 52.1138C75.5798 52.7065 70.5401 53.7205 65.6262 54.9954C68.8047 46.65 72.0065 38.4863 74.8936 31.4706C75.0288 31.0841 72.3093 29.3089 70.8561 29.4948C70.4928 29.5413 70.2319 29.667 70.0176 30.1559ZM49.4767 62.9694C52.0641 62.2692 55.2873 61.4875 58.8621 60.5686C57.1282 65.7752 55.3943 70.9818 53.672 76.2792C53.7151 71.5659 52.4983 67.1061 49.4767 62.9694Z" class="svg-red"/>
<path d="M88.1423 74.546C88.7866 77.4175 90.8819 79.3648 93.8791 78.9814C102.417 77.8891 110.552 55.6169 101.003 52.4077C100.514 52.1934 99.8662 52.1839 99.2304 52.2652C96.7782 52.579 94.6608 54.7884 93.4517 56.8816C92.0893 57.0559 91.5349 57.773 90.9594 59.0467C88.9836 63.0842 87.0163 70.0745 88.1423 74.546ZM93.4626 68.5113C94.2388 65.9196 95.5556 61.7818 96.7531 59.5978C97.0699 59.188 97.7152 58.4593 97.3846 58.04C97.2473 57.6883 96.6559 57.3948 96.1785 57.2712C96.9684 55.5086 98.2262 54.5169 99.3161 54.3774C99.861 54.3077 100.259 54.5337 100.737 54.6572C106.776 57.8538 97.3683 75.9503 93.6446 76.4267C93.0088 76.508 92.599 76.1912 92.392 75.2946C91.9663 73.4106 93.1131 69.3868 93.4626 68.5113Z" class="svg-red"/>
<path d="M123.147 36.4665C123.86 35.5445 121.662 33.5179 119.119 33.8433C117.393 34.0641 116.885 35.1445 116.151 36.623C113.546 42.9565 105.072 69.7953 105.188 78.6422C105.295 80.1978 106.179 83.5001 108.28 83.3237C108.339 72.239 119.163 41.407 123.147 36.4665Z" class="svg-red"  />
<path d="M132.336 55.2298C132.336 55.2298 132.245 55.2414 132.177 55.4347C129.104 60.9973 125.952 66.6622 121.457 71.2068C120.867 71.6514 120.618 71.8679 120.255 71.9144C120.164 71.926 120.164 71.926 120.062 71.8468C118.799 71.3621 120.771 65.8482 121.03 64.9843C122.381 61.1189 124.061 56.9346 125.823 53.3861L125.89 53.1928C126.657 51.2486 124.622 50.4935 123.178 50.0321C122.61 49.9201 122.224 49.785 121.951 49.8198C120.407 50.0174 115.99 65.9983 115.361 68.2943C114.587 71.6242 117.252 74.4217 119.795 74.0963C123.428 73.6315 129.6 63.4262 131.317 60.2526C131.881 58.8881 132.626 57.5004 133.372 56.1127C133.109 55.5002 132.79 55.1717 132.336 55.2298ZM129.326 31.7065C128.963 31.753 128.805 31.9579 128.42 32.5609C126.477 36.1327 124.226 43.0671 125.214 47.1869C125.375 47.7202 125.591 47.9694 125.682 47.9578C125.773 47.9462 125.841 47.7529 126.067 47.3548C128.212 43.2032 130.165 38.984 132.413 34.9117C132.548 34.5251 133.035 34.0013 132.693 33.4912C132.19 32.4478 130.689 31.5322 129.326 31.7065Z" class="svg-red"/>
<path d="M151.565 28.8612C149.658 29.1052 149.138 30.0948 148.519 31.7434C146.58 36.7916 143.786 44.5339 141.718 52.1832C141.155 49.9475 139.423 47.9537 137.062 48.2558C131.067 49.0227 126.308 64.4936 127.885 71.769C128.208 73.5738 129.735 75.4092 131.552 75.1768C131.824 75.142 132.188 75.0955 132.448 74.9698C134.682 73.6686 138.473 65.0603 140.018 61.2625C139.279 64.8649 139.22 68.011 140.113 70.666C140.765 72.1519 141.892 73.0231 142.756 73.2818C143.04 73.3378 143.233 73.4054 143.506 73.3705C147.229 72.8941 153.304 60.4858 155.303 56.63C155.382 56.5275 155.438 56.2434 155.426 56.1526C156.263 54.7533 156.838 53.4796 157.12 52.7973C156.845 52.094 156.436 51.7772 155.982 51.8353C155.891 51.8469 155.8 51.8585 155.721 51.961C154.942 53.8144 146.571 69.1935 144.664 69.4376C141.667 69.821 151.938 36.106 155.491 31.4052C156.204 30.4832 154.017 28.5475 151.565 28.8612ZM138.97 52.3502C140.332 52.1759 140.93 54.6841 141.035 55.5015C140.867 56.3538 140.811 56.6379 140.552 57.5018C138.183 62.7897 134.073 71.0696 132.71 71.2439C132.347 71.2904 132.21 70.9387 132.196 70.1097C132.206 65.8621 136.245 52.6988 138.97 52.3502Z" class="svg-red"/>
<path d="M168.636 62.2166C168.384 61.6949 168.359 60.775 168.627 59.2638C168.712 57.0375 169.381 52.8902 171.012 51.2046C171.68 50.6576 171.578 50.5784 170.951 50.0123C169.904 49.0386 168.847 48.7123 167.938 48.8285C167.575 48.875 167.223 49.0123 166.792 49.2521C167.182 46.5252 167.264 43.5608 164.987 41.6367C164.373 41.1614 163.486 40.7211 162.577 40.8373C161.578 40.9651 160.558 41.6495 159.426 42.9021C154.546 48.0496 146.709 67.6066 154.303 69.9583C154.883 70.161 155.269 70.2962 155.814 70.2264C155.996 70.2032 156.166 70.0891 156.347 70.0659C158.66 68.6623 161.244 62.8854 163.4 58.0864C163.423 58.268 163.434 58.3589 163.378 58.643C163.329 61.1417 163.44 64.1737 165.477 65.667C166.092 66.1422 166.774 66.4241 167.591 66.3195C172.496 65.6921 178.319 52.7621 179.798 49.8958C179.398 48.9316 179.125 48.9665 178.399 49.0595C178.026 49.7533 171.577 62.1172 169.216 62.4193C169.034 62.4426 168.841 62.375 168.636 62.2166ZM162.937 47.253C163.582 46.5243 164.069 46.0005 164.523 45.9424C165.249 45.8494 165.617 47.2793 165.637 50.323C164.901 51.0633 164.563 52.0297 164.225 52.996C161.457 58.058 158.107 65.7792 156.744 65.9535C155.333 65.0263 159.883 51.5208 162.937 47.253Z" class="svg-red"/>
<path d="M173.884 86.5611C174.702 86.4566 175.666 86.0563 176.551 85.7584C186.442 81.539 191.234 57.6637 193.551 49.7979C194.136 47.8768 194.709 45.865 195.306 44.0347C195.788 42.0345 193.527 41.6776 192.074 41.8635C191.347 41.9565 190.633 42.1403 190.453 42.9017C188.808 47.3585 180.969 66.1772 178.142 66.4467C175.86 66.6463 179.269 55.779 179.607 54.8127C180.609 51.8229 182.04 47.8551 183.76 45.4197C184.235 44.805 184.37 44.4185 183.823 43.75C183.115 42.5482 181.774 42.1659 180.412 42.3402C179.776 42.4216 179.471 42.9222 179.177 43.5136C176.034 48.5312 172.657 58.9328 173.776 64.7898C174.146 66.9579 175.538 69.1799 178.183 68.9338C181.839 68.6506 185.512 58.3958 186.901 55.5411C184.274 66.0314 179.563 82.6038 172.025 83.5682C169.027 83.9517 167.84 81.8881 167.152 79.3916C166.979 78.7674 166.751 78.4274 166.195 78.4063C165.536 78.306 165.834 79.191 165.983 79.6335C166.948 83.5716 169.343 87.1421 173.884 86.5611Z" class="svg-red"/>
<path d="M43.6319 104.423C47.6214 93.7585 46.8426 79.7347 36.852 81.0129C35.6713 81.164 34.253 81.6224 32.597 82.3881C23.2391 86.447 2.88576 105.575 4.99637 120.628C6.21435 129.426 16.9444 132.484 23.3622 132.863C26.1567 133.06 29.0979 132.96 31.9155 133.338C33.506 133.504 35.9139 133.565 34.4344 136.431C32.617 140.264 25.1401 146.759 21.4164 147.236C20.054 147.41 19.451 147.026 18.5849 146.029C18.3568 145.689 18.0727 145.633 17.8911 145.656C17.5278 145.702 17.4042 146.18 17.6556 146.701C18.6632 149.526 20.8821 150.996 23.8793 150.613C27.6031 150.137 31.7724 146.649 34.1274 144.132C36.5267 141.241 40.5851 134.721 36.1567 131.134C30.1453 125.995 12.5763 130.089 9.83967 122.408C6.5306 113.139 25.7571 93.1404 29.917 90.3004C31.6964 89.0573 35.493 86.2638 38.3993 85.892C39.2167 85.7874 39.9666 85.8761 40.558 86.1697C43.3218 87.5699 42.1414 95.6597 39.3356 103.311C38.0843 106.517 33.4379 117.82 29.9866 118.262L29.5325 118.32C29.26 118.354 29.09 118.469 28.9316 118.673C28.4447 119.197 28.9569 119.593 29.3435 119.728C30.0141 119.92 30.6615 119.929 31.2973 119.848C37.11 119.104 41.8515 109.266 43.6319 104.423Z" class="svg-red"/>
<path d="M63.7609 106.832C62.7364 106.04 61.5092 105.828 60.3285 105.979C59.1151 106.596 47.804 126.413 46.6297 128.779C47.3172 126.937 48.1419 125.447 48.6593 123.719C50.5749 118.489 50.6446 119.034 52.5602 113.804C52.9889 112.826 53.2941 112.326 52.463 111.601L52.2581 111.443C51.3361 110.73 50.0973 110.427 49.0074 110.566C47.645 110.741 47.0441 111.094 46.6619 112.436C44.0937 119.78 43.1549 121.1 41.5415 128.691C40.9935 131.623 41.6684 133.29 44.4649 134.225C44.9423 134.349 45.4313 134.563 45.7037 134.528C46.2487 134.458 46.4747 134.06 46.7566 133.378C50.1211 126.486 54.077 119.887 58.1353 113.368C56.6579 116.972 52.4277 130.806 58.8689 131.367C59.1529 131.423 59.3346 131.399 59.6071 131.365C64.784 130.702 71.0209 119.565 73.2459 115.311C73.5955 114.436 74.0591 113.73 74.2734 113.241C74.0104 112.629 73.5098 112.324 73.2374 112.359C73.1466 112.37 73.0673 112.473 73.0673 112.473C72.9206 112.768 71.9258 114.373 70.8075 116.454C70.8075 116.454 70.7399 116.648 70.6607 116.75L70.5815 116.852C68.5127 120.163 65.1134 126.783 61.641 127.781C57.7028 128.747 63.8107 112.272 64.5192 109.874L64.5752 109.59C64.8899 108.442 64.7621 107.443 63.7609 106.832Z" class="svg-red"/>
<path d="M68.4596 126.816C69.1039 129.688 71.1992 131.635 74.1964 131.252C82.7338 130.16 90.8692 107.887 81.3199 104.678C80.8309 104.464 80.1835 104.454 79.5477 104.536C77.0955 104.849 74.9781 107.059 73.769 109.152C72.4066 109.326 71.8522 110.043 71.2767 111.317C69.3009 115.355 67.3336 122.345 68.4596 126.816ZM73.7799 120.782C74.5561 118.19 75.8729 114.052 77.0704 111.868C77.3872 111.458 78.0325 110.73 77.7019 110.31C77.5646 109.959 76.9732 109.665 76.4958 109.542C77.2857 107.779 78.5435 106.787 79.6334 106.648C80.1783 106.578 80.5765 106.804 81.0538 106.928C87.0937 110.124 77.6856 128.221 73.9619 128.697C73.3261 128.779 72.9163 128.462 72.7093 127.565C72.2836 125.681 73.4304 121.657 73.7799 120.782Z" class="svg-red"/>
<path d="M91.6331 129.021C92.178 128.951 92.4273 128.735 92.63 128.155C93.667 125.438 95.6734 120.196 98.3831 114.68C97.8743 119.361 97.7635 124.267 98.1544 125.879C98.7406 128.296 99.6109 130.77 102.608 130.386C103.153 130.316 103.493 130.088 103.684 129.418C105.484 123.28 113.491 100.008 118.117 97.201C119.172 96.7891 118.282 95.6105 116.829 95.7965C116.193 95.8778 115.343 96.4481 114.551 97.4726C109.357 103.768 103.518 123.069 102.22 125.912C101.416 118.907 102.771 112.18 104.671 105.383C104.783 104.815 104.68 104.736 104.077 104.351C103.202 104.002 102.452 103.913 101.816 103.994C100.454 104.169 99.9015 105.624 99.6776 106.76C95.915 113.427 92.2518 123.034 91.2918 124.911C91.9811 115.868 93.8554 108.151 96.108 105.555C96.108 105.555 94.7762 104.526 93.323 104.712C92.2332 104.851 91.043 105.65 90.0271 107.81C88.121 112.393 86.3999 122.029 87.7983 126.465C88.3032 128.247 89.7258 129.265 91.6331 129.021Z" class="svg-red"/>
<path d="M107.516 95.8803C111.908 94.8568 116.3 93.8333 120.807 92.9798C117.169 103.507 113.588 118.089 112.834 124.462C112.466 126.632 112.46 132.356 115.741 132.029C115.827 122.602 122.052 103.436 127.118 91.8031C131 91.1218 134.78 90.3613 138.469 89.6124C140.886 89.0261 141.362 84.8113 139.467 85.1461C136.164 86.0302 132.601 87.0399 129.014 87.868C130.03 85.7072 131.025 84.103 131.829 83.1694C132.621 82.1449 130.956 79.9578 128.322 80.2948C127.778 80.3645 127.244 80.5251 126.552 80.8905C125.43 81.4957 123.759 85.0326 121.876 89.7967C116.611 91.2089 111.527 92.5978 106.976 93.8262C106 94.1357 106.426 96.0197 107.334 95.9035L107.516 95.8803Z" class="svg-red"/>
<path d="M140.172 115.61C139.921 115.089 139.896 114.169 140.164 112.658C140.248 110.431 140.918 106.284 142.548 104.599C143.217 104.051 143.114 103.972 142.488 103.406C141.44 102.433 140.383 102.106 139.475 102.222C139.112 102.269 138.76 102.406 138.329 102.646C138.719 99.9191 138.801 96.9547 136.524 95.0306C135.909 94.5553 135.022 94.115 134.114 94.2312C133.115 94.359 132.095 95.0434 130.963 96.296C126.082 101.444 118.246 121.001 125.839 123.352C126.419 123.555 126.806 123.69 127.351 123.62C127.532 123.597 127.702 123.483 127.884 123.46C130.197 122.056 132.781 116.279 134.936 111.48C134.959 111.662 134.971 111.753 134.915 112.037C134.865 114.536 134.976 117.568 137.014 119.061C137.628 119.536 138.311 119.818 139.128 119.713C144.032 119.086 149.855 106.156 151.335 103.29C150.934 102.326 150.662 102.36 149.935 102.453C149.563 103.147 143.114 115.511 140.752 115.813C140.57 115.836 140.377 115.769 140.172 115.61ZM134.473 100.647C135.118 99.9182 135.605 99.3944 136.059 99.3363C136.786 99.2433 137.153 100.673 137.174 103.717C136.438 104.457 136.1 105.424 135.762 106.39C132.994 111.452 129.643 119.173 128.281 119.347C126.87 118.42 131.419 104.915 134.473 100.647Z" class="svg-red"/>
<path d="M161.376 100.159C161.579 99.579 161.6 99.0225 161.621 98.4659C161.873 95.3874 159.459 93.1116 156.553 93.4834C155.554 93.6113 154.589 94.0115 153.592 94.8776C148.449 99.4126 141.588 114.322 147.68 120.096C148.854 121.331 150.377 121.69 152.102 121.469C158.642 120.632 163.702 111.123 166.379 106.073C167.339 104.196 168.164 102.706 168.616 101.91C168.523 101.183 167.943 100.98 167.58 101.027C167.489 101.038 167.398 101.05 167.41 101.141C164.416 106.601 158.258 117.635 151.537 118.495C145.45 118.535 154.94 97.4745 158.664 96.998C158.846 96.9748 159.13 97.0308 159.244 97.2008C160.133 98.3793 158.374 102.666 157.502 103.793C157.197 104.294 156.156 105.535 157.111 105.782C157.213 105.861 157.395 105.838 157.486 105.826C159.211 105.605 160.915 101.603 161.388 100.25L161.376 100.159Z" class="svg-red"/>
<path d="M166.994 118.641C169.628 118.304 174.733 108.419 175.737 106.168L175.716 106.724C175.655 109.132 175.856 112.153 177.712 113.669C178.417 114.133 179.191 114.403 179.826 114.322C184.64 113.706 190.384 100.878 191.875 98.1029C191.6 97.3996 191.19 97.0828 190.736 97.1409C190.645 97.1525 190.566 97.2549 190.566 97.2549C190.193 97.9488 183.812 110.119 181.45 110.422C181.269 110.445 181.076 110.377 180.961 110.207C180.722 109.776 180.696 108.856 180.783 107.368C181.194 104.085 183.221 98.287 183.65 97.309C184.293 95.8421 181.918 95.3152 180.374 95.5127C178.376 95.7684 177.001 99.4521 176.563 101.077C173.795 106.139 169.31 114.375 168.027 114.447C166.024 113.226 172.812 96.2956 174.736 94.0186C174.266 92.5094 172.718 91.2306 171.265 91.4165C170.629 91.4978 169.937 91.8633 169.497 92.7504C165.981 98.4619 159.345 116.573 165.585 118.452C166.062 118.575 166.54 118.699 166.994 118.641Z" class="svg-red"/>
<path d="M203.068 75.9933C203.781 75.0713 201.583 73.0447 199.04 73.3701C197.315 73.5909 196.807 74.6713 196.073 76.1498C193.468 82.4833 184.994 109.322 185.11 118.169C185.217 119.725 186.101 123.027 188.201 122.851C188.26 111.766 199.085 80.9338 203.068 75.9933Z" class="svg-red"/>
<path d="M212.813 106.317C212.562 105.795 212.537 104.875 212.805 103.364C212.889 101.138 213.559 96.9902 215.189 95.3046C215.858 94.7576 215.755 94.6784 215.129 94.1123C214.081 93.1386 213.024 92.8123 212.116 92.9285C211.753 92.975 211.401 93.1123 210.97 93.3521C211.36 90.6252 211.442 87.6608 209.165 85.7366C208.55 85.2614 207.663 84.8211 206.755 84.9373C205.756 85.0651 204.736 85.7495 203.604 87.002C198.724 92.1496 190.887 111.707 198.48 114.058C199.06 114.261 199.447 114.396 199.992 114.326C200.173 114.303 200.343 114.189 200.525 114.166C202.838 112.762 205.422 106.985 207.577 102.186C207.6 102.368 207.612 102.459 207.556 102.743C207.506 105.242 207.617 108.274 209.655 109.767C210.269 110.242 210.952 110.524 211.769 110.42C216.674 109.792 222.496 96.8621 223.976 93.9958C223.576 93.0316 223.303 93.0665 222.576 93.1594C222.204 93.8533 215.755 106.217 213.393 106.519C213.212 106.543 213.018 106.475 212.813 106.317ZM207.114 91.353C207.759 90.6243 208.246 90.1005 208.7 90.0424C209.427 89.9494 209.795 91.3793 209.815 94.423C209.079 95.1633 208.741 96.1297 208.403 97.096C205.635 102.158 202.284 109.879 200.922 110.053C199.511 109.126 204.06 95.6208 207.114 91.353Z" class="svg-red"/>
<path d="M230.959 82.1174C230.64 81.789 230.14 81.4838 229.73 81.167C230.734 78.9153 231.478 76.7894 231.893 74.9824C232.24 73.3687 231.081 69.363 229.016 69.8119C225.236 70.5724 221.839 77.9303 226.961 81.8905C224.75 86.9735 222.35 93.4654 220.7 96.4458C220.632 96.639 220.839 97.5356 221.475 97.4543C221.657 97.4311 221.918 97.3054 222.416 96.8724C224.168 93.9712 225.541 89.5493 228.714 83.3278C229.033 83.6562 229.352 83.9846 229.478 84.2455C232.078 87.9745 222.345 103.528 223.409 110.407C223.677 112.496 225.106 115.729 227.74 115.392C228.012 115.357 228.182 115.243 228.443 115.117C232.954 112.14 241.012 94.3086 242.062 92.4202C242.209 92.1245 241.97 91.6937 241.583 91.5585C241.39 91.4909 241.287 91.4117 241.106 91.4349C240.924 91.4582 240.845 91.5606 240.596 91.7771C238.867 94.8599 230.479 112.272 227.787 112.155C228.566 106.701 232.898 96.5467 233.716 92.8419C234.649 89.3071 235.088 84.0816 230.959 82.1174ZM229.231 73.6613C229.685 73.6032 229.846 74.1366 229.487 75.6595C229.275 76.8866 228.802 78.2395 228.294 79.3199C226.38 77.3493 228.414 73.7659 229.231 73.6613Z" class="svg-red"/>
<path d="M238.491 116.416C238.55 105.332 249.375 74.4996 253.358 69.559C254.071 68.637 251.873 66.6105 249.33 66.9359C247.605 67.1566 247.097 68.237 246.363 69.7156C243.758 76.0491 235.283 102.888 235.4 111.735C235.507 113.29 236.391 116.593 238.491 116.416ZM235.045 126.273C236.952 126.029 238.443 123.253 238.176 121.164C238.001 119.802 236.84 118.658 235.114 118.879C233.207 119.123 231.536 122.66 231.722 124.113C231.943 125.839 233.137 126.517 235.045 126.273Z" class="svg-red"/>
</svg>
