<svg width="457" height="233" viewBox="0 0 571 233" fill="none" xmlns="http://www.w3.org/2000/svg">
<path fill-rule="evenodd" clip-rule="evenodd" d="M292.565 113.205H267.264V195.47H292.565V161.149C292.546 157.416 292.772 153.685 293.243 149.981C293.589 146.897 294.595 143.923 296.189 141.26C297.769 138.79 300.023 136.823 302.684 135.593C305.502 134.238 309.314 133.56 314.125 133.56C315.961 133.554 317.794 133.696 319.606 133.983C321.395 134.28 323.159 134.703 324.887 135.25V112.017C323.562 111.667 322.206 111.44 320.84 111.34C319.37 111.234 317.908 111.172 316.44 111.172C310.82 111.172 306.152 112.443 302.439 114.983C298.724 117.523 295.522 121.337 292.829 126.423H292.485L292.565 113.205ZM362.966 67.5059H337.684V195.47H360.959V184.637H361.302C362.461 186.268 363.788 187.773 365.262 189.125C367.004 190.73 368.931 192.122 371.001 193.27C373.271 194.543 375.673 195.564 378.165 196.315C380.847 197.121 383.635 197.521 386.436 197.503C392.101 197.58 397.721 196.514 402.963 194.37C407.783 192.373 412.124 189.373 415.697 185.57C419.305 181.683 422.089 177.106 423.882 172.114C425.842 166.629 426.813 160.84 426.75 155.015C426.765 149.409 425.873 143.837 424.11 138.515C422.473 133.461 419.964 128.734 416.692 124.549C413.515 120.51 409.517 117.192 404.961 114.816C400.11 112.33 394.72 111.079 389.27 111.172C384.246 111.13 379.253 111.96 374.511 113.628C370.012 115.225 366.103 118.146 363.291 122.006H362.958L362.966 67.5059ZM366.257 169.404C362.738 165.567 360.976 160.545 360.976 154.338C360.976 148.131 362.738 143.109 366.257 139.272C369.778 135.435 374.764 133.516 381.217 133.516C387.671 133.516 392.658 135.435 396.177 139.272C399.698 143.109 401.457 148.131 401.457 154.338C401.457 160.545 399.698 165.567 396.177 169.404C392.658 173.241 387.671 175.159 381.217 175.159C374.764 175.159 369.784 173.241 366.276 169.404H366.257ZM520.137 133.516H542.401V113.205H520.137V88.864H494.847V113.241H478.653V133.551H494.847V172.651C494.735 176.61 495.514 180.543 497.126 184.161C498.558 187.217 500.733 189.864 503.452 191.862C506.286 193.888 509.488 195.343 512.878 196.147C516.743 197.079 520.71 197.534 524.687 197.503C527.676 197.496 530.66 197.326 533.628 196.992C536.633 196.67 539.588 195.987 542.429 194.959V173.839C541.005 174.975 539.273 175.653 537.457 175.784C535.706 176.031 533.944 176.172 532.176 176.206C529.944 176.298 527.718 175.923 525.637 175.106C524.123 174.479 522.851 173.381 522.013 171.973C521.181 170.487 520.661 168.845 520.49 167.151C520.254 165.106 520.142 163.049 520.156 160.991L520.137 133.516ZM442.327 76.8957C439.94 79.2947 438.457 82.4468 438.132 85.8154C437.809 89.184 438.662 92.5609 440.546 95.3713C442.432 98.1817 445.233 100.252 448.473 101.229C451.713 102.207 455.192 102.031 458.318 100.732C461.442 99.4337 464.02 97.092 465.613 94.1059C467.206 91.12 467.715 87.6743 467.051 84.3555C466.39 81.0367 464.599 78.0498 461.982 75.9034C459.365 73.7571 456.085 72.584 452.702 72.5836C450.771 72.56 448.853 72.9302 447.071 73.6716C445.286 74.4129 443.672 75.5099 442.327 76.8957ZM465.357 113.205H440.048V195.47H465.357V113.205Z" fill="#2B313C"/>
<path fill-rule="evenodd" clip-rule="evenodd" d="M251.443 103.701C249.402 88.2756 243.605 73.5866 234.561 60.9244C225.519 48.2625 213.505 38.0142 199.574 31.0801C185.645 24.146 170.226 20.738 154.671 21.1553C139.117 21.5724 123.903 25.8024 110.365 33.4732C96.8274 41.1442 85.38 52.0216 77.0284 65.1503C68.6767 78.2791 63.676 93.2576 62.4658 108.771C61.2553 124.283 63.8722 139.856 70.0865 154.121C76.301 168.387 85.9226 180.908 98.1068 190.586C107.435 186.432 117.635 181.583 128.468 176.144C117.511 170.895 108.201 162.745 101.548 152.578C94.8953 142.412 91.1539 130.618 90.7297 118.476C90.3056 106.334 93.2149 94.3071 99.1421 83.7013C105.069 73.0957 113.788 64.3158 124.352 58.3145C134.916 52.3133 146.922 49.3198 159.067 49.6588C171.211 49.9978 183.031 53.6566 193.244 60.238C203.457 66.8193 211.671 76.0721 216.998 86.992C222.325 97.9119 224.558 110.082 223.457 122.182C233.49 115.819 242.87 109.624 251.443 103.701ZM252.243 114.473C242.642 121.574 232.003 128.931 220.561 136.35C215.452 152.377 204.46 165.873 189.798 174.121C175.137 182.368 157.895 184.755 141.545 180.8C129.004 186.828 117.107 192.046 106.212 196.367C120.702 205.583 137.419 210.7 154.586 211.176C171.752 211.651 188.726 207.466 203.704 199.066C218.682 190.666 231.105 178.365 239.651 163.47C248.199 148.575 252.549 131.643 252.243 114.473Z" fill="#2B313C"/>
<path fill-rule="evenodd" clip-rule="evenodd" d="M257.064 37.1728C258.35 37.1728 259.607 36.7913 260.678 36.0768C261.746 35.3621 262.581 34.3466 263.073 33.1581C263.565 31.9698 263.694 30.6622 263.442 29.4006C263.191 28.1392 262.572 26.9803 261.662 26.0708C260.754 25.1614 259.594 24.5419 258.333 24.291C257.07 24.04 255.763 24.1689 254.576 24.661C253.387 25.1533 252.371 25.9868 251.657 27.0564C250.941 28.1257 250.561 29.3833 250.561 30.6694C250.558 31.5237 250.727 32.37 251.053 33.1595C251.38 33.9491 251.857 34.6665 252.464 35.2706C253.068 35.8747 253.784 36.3537 254.574 36.68C255.364 37.0066 256.208 37.1738 257.064 37.1728Z" fill="#00CCF5"/>
<path fill-rule="evenodd" clip-rule="evenodd" d="M38.2377 147.666C39.9532 147.666 41.63 147.157 43.0561 146.204C44.4822 145.25 45.5932 143.895 46.2486 142.309C46.9038 140.724 47.074 138.98 46.7373 137.297C46.4007 135.615 45.5725 134.071 44.3576 132.86C43.1427 131.648 41.5956 130.825 39.9124 130.493C38.2293 130.162 36.4855 130.337 34.9021 130.998C33.3186 131.658 31.9666 132.773 31.0174 134.202C30.068 135.631 29.5641 137.309 29.5694 139.025C29.5763 141.319 30.4928 143.517 32.1177 145.137C33.7425 146.757 35.9433 147.666 38.2377 147.666Z" fill="#00CCF5"/>
<path fill-rule="evenodd" clip-rule="evenodd" d="M184.63 96.6072C193.993 91.4327 203.11 86.5222 211.909 81.99C212.237 82.518 212.587 83.1428 212.957 83.847C204.236 88.4054 195.119 93.3336 185.756 98.5169L184.63 96.6072ZM306.249 50.4326C302.069 43.1899 276.724 50.8812 240.854 67.6458C241.189 68.2002 241.523 68.7721 241.84 69.353C276.204 52.9933 300.185 45.1172 303.231 51.4534C308.017 59.743 253.068 100.418 180.555 142.298C108.041 184.178 45.331 211.405 40.5437 203.116C37.8156 198.188 51.3062 184.759 63.4243 174.076C45.9733 188.156 36.821 199.007 39.8308 204.216C46.6597 216.052 112.758 192.776 186.337 150.324C259.916 107.872 313.114 62.2687 306.249 50.4326Z" fill="#00CCF5"/>
<path d="M176.014 103.49C174.463 100.829 173.884 97.7127 174.374 94.6725C174.864 91.6323 176.394 88.8561 178.702 86.8175C181.01 84.7789 183.953 83.6039 187.031 83.493C190.109 83.3821 193.129 84.3423 195.578 86.2096C198.027 88.0767 199.752 90.7357 200.46 93.7328C201.167 96.7301 200.814 99.8799 199.459 102.645C198.104 105.41 195.831 107.62 193.029 108.898C190.227 110.175 187.068 110.441 184.092 109.65C182.398 109.226 180.807 108.462 179.418 107.403C178.029 106.343 176.87 105.012 176.014 103.49Z" fill="#FA00E9"/>
<path d="M555.502 84.4851C562.977 84.4851 568.16 79.3482 568.16 72.3486V70.9092C568.16 64.3612 562.804 59.1396 555.502 59.1396C548.171 59.1396 542.814 64.3046 542.814 70.9092V72.3486C542.814 79.3482 548.055 84.4851 555.502 84.4851ZM555.472 82.6222C549.145 82.6222 544.791 78.304 544.791 72.405V70.8245C544.791 65.3772 549.259 60.9742 555.472 60.9742C561.745 60.9742 566.213 65.3208 566.213 70.8245V72.405C566.213 78.304 561.773 82.6222 555.472 82.6222ZM552.839 78.1629V72.9413H555.988L558.881 78.1629H561.029C559.999 76.3564 558.25 73.2801 557.878 72.6591C559.424 72.2356 560.599 70.8809 560.599 68.8769C560.599 66.5908 558.881 64.982 556.389 64.982H550.976V78.1629H552.839ZM552.839 66.5063H555.874C557.593 66.5063 558.708 67.3528 558.708 68.9336C558.708 70.7398 557.363 71.4172 555.703 71.4172H552.839V66.5063Z" fill="#2B313C"/>
</svg>